<svg xmlns="http://www.w3.org/2000/svg" xmlns:xlink="http://www.w3.org/1999/xlink" width="500" zoomAndPan="magnify" viewBox="0 0 375 374.999991" height="500" preserveAspectRatio="xMidYMid meet" version="1.0"><defs><clipPath id="d698af40b3"><path d="M 25.3125 0 L 350 0 L 350 134 L 25.3125 134 Z M 25.3125 0 " clip-rule="nonzero"/></clipPath><clipPath id="78d3eb4b90"><path d="M 25.3125 93 L 188 93 L 188 375 L 25.3125 375 Z M 25.3125 93 " clip-rule="nonzero"/></clipPath></defs><g clip-path="url(#d698af40b3)"><path fill="#246bfd" d="M 25.296875 93.847656 L 93.652344 133.3125 L 187.484375 79.140625 L 281.328125 133.3125 L 281.328125 133.316406 L 349.683594 93.847656 L 187.488281 0.210938 L 25.296875 93.847656 " fill-opacity="1" fill-rule="nonzero"/></g><path fill="#161a4d" d="M 281.328125 241.667969 L 187.488281 295.847656 L 187.488281 374.773438 L 349.683594 281.136719 L 349.683594 93.847656 L 281.328125 133.316406 L 281.328125 241.667969 " fill-opacity="1" fill-rule="nonzero"/><g clip-path="url(#78d3eb4b90)"><path fill="#5fc0f8" d="M 187.484375 295.847656 L 93.652344 241.667969 L 93.652344 133.3125 L 25.296875 93.847656 L 25.296875 281.136719 L 187.488281 374.773438 L 187.484375 295.847656 " fill-opacity="1" fill-rule="nonzero"/></g><path fill="#161a4d" d="M 131.261719 219.953125 L 131.261719 155.03125 L 187.484375 122.566406 L 187.484375 79.140625 L 93.652344 133.3125 L 93.652344 241.667969 L 131.261719 219.953125 " fill-opacity="1" fill-rule="nonzero"/><path fill="#5fc0f8" d="M 187.484375 122.566406 L 243.71875 155.03125 L 243.71875 219.953125 L 281.328125 241.667969 L 281.328125 133.3125 L 187.484375 79.140625 L 187.484375 122.566406 " fill-opacity="1" fill-rule="nonzero"/><path fill="#246bfd" d="M 281.328125 241.667969 L 243.71875 219.953125 L 187.484375 252.421875 L 131.261719 219.953125 L 93.652344 241.667969 L 187.484375 295.847656 L 187.488281 374.773438 L 187.488281 295.847656 L 281.328125 241.667969 " fill-opacity="1" fill-rule="nonzero"/><path fill="#5fc0f8" d="M 187.484375 187.5 L 131.261719 155.03125 L 131.261719 219.953125 L 187.484375 252.421875 L 187.484375 187.5 " fill-opacity="1" fill-rule="nonzero"/><path fill="#246bfd" d="M 187.484375 187.5 L 243.71875 155.03125 L 187.484375 122.566406 L 131.261719 155.03125 L 187.484375 187.5 " fill-opacity="1" fill-rule="nonzero"/><path fill="#161a4d" d="M 243.71875 155.03125 L 187.484375 187.5 L 187.484375 252.421875 L 243.71875 219.953125 L 243.71875 155.03125 " fill-opacity="1" fill-rule="nonzero"/></svg>